#N canvas 455 114 487 558 10;
#X obj 105 53 midisequence;
#X obj 102 12 bng 15 250 50 0 empty empty empty 17 7 0 10 -262144 -1
-1;
#X obj 105 86 delay 2000;
#X obj 79 132 spigot;
#X obj 115 109 tgl 15 0 empty empty empty 17 7 0 10 -262144 -1 -1 0
1;
#X text 138 112 repeat;
#X obj 348 113 makenote;
#X obj 331 203 print note;
#X obj 331 31 receive note;
#X obj 349 80 trigger \$1 \$2 \$3;
#X obj 347 153 noteout;
#X obj 53 194 notein;
#X obj 53 231 list \$1 \$2;
#X obj 69 255 print notein;
#X text 24 174 control in;
#X obj 53 281 route 60 62;
#X obj 30 380 print 60off;
#X obj 112 379 print 60on;
#X text 64 330 note 60;
#X obj 53 345 select 0 90;
#X text 322 9 play notes from sequencer;
#X connect 0 0 2 0;
#X connect 1 0 0 0;
#X connect 2 0 3 0;
#X connect 3 0 0 0;
#X connect 4 0 3 1;
#X connect 6 0 10 0;
#X connect 6 1 10 1;
#X connect 8 0 7 0;
#X connect 8 0 9 0;
#X connect 9 0 6 0;
#X connect 9 1 6 1;
#X connect 9 2 6 2;
#X connect 11 0 12 0;
#X connect 11 1 12 1;
#X connect 12 0 13 0;
#X connect 12 0 15 0;
#X connect 15 0 19 0;
#X connect 19 0 16 0;
#X connect 19 1 17 0;
