#N canvas 692 67 529 411 10;
#X obj 160 129 qlist, f 6;
#X obj 113 7 bng 15 250 50 0 empty empty empty 17 7 0 10 -262144 -1
-1;
#X obj 165 4 loadbang;
#X msg 177 30 add note 60 100 200 \, add 250 note 62 100 250 \, add
250;
#X obj 71 8 inlet;
#X obj 209 176 outlet;
#X text 263 181 done;
#X text 16 9 play;
#X text 239 10 notes: delay \, note \, vel \, duration (ms);
#X obj 221 153 print done;
#X connect 0 1 5 0;
#X connect 0 1 9 0;
#X connect 1 0 0 0;
#X connect 2 0 3 0;
#X connect 3 0 0 0;
#X connect 4 0 0 0;
